<?xml version="1.0" encoding="UTF-8" standalone="no"?>
<svg width="126px" height="70px" viewBox="0 0 126 70" version="1.1" xmlns="http://www.w3.org/2000/svg" xmlns:xlink="http://www.w3.org/1999/xlink">
    <!-- Generator: Sketch 3.7.2 (28276) - http://www.bohemiancoding.com/sketch -->
    <title>icons-modular</title>
    <desc>Created with Sketch.</desc>
    <defs></defs>
    <g id="Page-1" stroke="none" stroke-width="1" fill="none" fill-rule="evenodd">
        <g id="icons-modular" transform="translate(-1.000000, 0.000000)">
            <g id="Group">
                <g id="layers" transform="translate(0.000000, 0.407008)" fill="#4AD9D9">
                    <path d="M2.49772097,20.2580321 L34.6825368,37.6238013 C35.0055339,37.7977811 35.3610474,37.885845 35.7208965,37.885845 C36.0742423,37.885845 36.4275881,37.799929 36.7484174,37.6280971 L69.2714046,20.2623279 C69.980264,19.8842976 70.4224882,19.1454201 70.4116493,18.3464014 C70.4008105,17.5473827 69.943412,16.8192447 69.2258816,16.4562496 L37.038898,0.261085816 C36.4254203,-0.0460638426 35.7013866,-0.0482117423 35.0835734,0.256790016 L2.56275394,16.4519538 C1.84305576,16.8106531 1.38132169,17.5366432 1.3683151,18.3356619 C1.3553085,19.1346806 1.79319715,19.875706 2.49772097,20.2580321 L2.49772097,20.2580321 Z M36.0525646,4.58480793 L63.5680133,18.4301695 L35.7273998,33.2957833 L8.21195108,18.4495006 L36.0547324,4.58480793 L36.0525646,4.58480793 Z M68.8530259,32.2411646 L62.4190976,29.0042797 L57.7735759,31.4851039 L63.1929899,34.2129365 L35.3545441,49.0785504 L7.83692764,34.2322676 L13.6161907,31.354082 L8.9858434,28.8539267 L2.18989826,32.2368688 C1.47020008,32.595568 1.00846601,33.3215581 0.995459415,34.1205768 C0.982452821,34.9195955 1.42034147,35.6606209 2.12486529,36.0429471 L34.3096811,53.4087162 C34.6326782,53.5826961 34.9881917,53.67076 35.3480408,53.67076 C35.7013866,53.67076 36.0547324,53.584844 36.3777295,53.413012 L68.9007167,36.0472429 C69.6095761,35.6692125 70.0496325,34.930335 70.0409614,34.1313163 C70.0322904,33.3322976 69.5748918,32.6041596 68.8551936,32.2411646 L68.8530259,32.2411646 Z M68.8530259,47.2764625 L62.7594368,44.3080652 L58.1139151,46.7888893 L63.1951577,49.2482345 L35.3545441,64.1138484 L7.83692764,49.2675656 L13.2108185,46.85977 L8.58047124,44.3596147 L2.19206602,47.2743146 C1.47236785,47.6330139 1.01063377,48.359004 0.99762718,49.1580227 C0.984620587,49.9570414 1.42250924,50.6980668 2.12703306,51.0803929 L34.3118489,68.4461621 C34.6348459,68.620142 34.9903595,68.7082058 35.3502086,68.7082058 C35.7035544,68.7082058 36.0569002,68.6222899 36.3777295,68.4504579 L68.9007167,51.0846887 C69.6095761,50.7066584 70.0496325,49.9677809 70.0409614,49.1687622 C70.0301226,48.3675956 69.5748918,47.6394576 68.8551936,47.2786104 L68.8530259,47.2764625 Z" id="Shape"></path>
                </g>
                <g id="puzzle" transform="translate(93.916667, 35.291667) scale(-1, 1) translate(-93.916667, -35.291667) translate(60.229167, 1.604167)" fill="#FFB703">
                    <path d="M33.6875,66.364375 C32.3930833,66.364375 31.17625,65.862125 30.2575,64.9474583 L2.407125,37.099125 C0.522666667,35.2065 0.522666667,32.125625 2.40304167,30.2370833 L12.60525,20.0369167 C13.2340833,19.4060417 14.2018333,19.257 14.994,19.6714583 C15.7820833,20.083875 16.2149167,20.9617917 16.0577083,21.8397083 C15.9535833,22.423625 15.906625,22.8911667 15.906625,23.3158333 C15.906625,27.783 19.5407917,31.4927083 24.01,31.4927083 C28.4832917,31.4927083 31.7479167,27.783 31.7479167,23.3158333 C31.7479167,18.8425417 28.4832917,15.208375 24.01,15.208375 C23.5914583,15.208375 23.1239167,15.257375 22.54,15.3594583 C21.6539167,15.5227917 20.7841667,15.0838333 20.37175,14.29575 C19.9593333,13.5035833 20.108375,12.5358333 20.7372083,11.907 L30.2493333,2.39283333 C32.0909167,0.559416667 35.2779583,0.5635 37.111375,2.38875 L44.0755,9.35695833 C45.5291667,4.83875 49.77175,1.55779167 54.763625,1.55779167 C60.9539583,1.55779167 65.99075,6.596625 65.99075,12.789 C65.99075,17.780875 62.713875,22.0255 58.1915833,23.477125 L64.9576667,30.239125 C66.8462083,32.1337917 66.8462083,35.212625 64.9597083,37.1032083 L37.1134167,64.9515417 C36.192625,65.8702917 34.9757917,66.3725417 33.681375,66.3725417 L33.6875,66.364375 Z" id="Shape"></path>
                </g>
            </g>
        </g>
    </g>
</svg>