<?xml version="1.0" encoding="UTF-8" standalone="no"?>
<svg width="24px" height="24px" viewBox="0 0 24 24" version="1.1" xmlns="http://www.w3.org/2000/svg" xmlns:xlink="http://www.w3.org/1999/xlink" xmlns:sketch="http://www.bohemiancoding.com/sketch/ns">
    <!-- Generator: Sketch 3.5.1 (25234) - http://www.bohemiancoding.com/sketch -->
    <title>arrow-left--blue</title>
    <desc>Created with Sketch.</desc>
    <defs></defs>
    <g id="Page-1" stroke="none" stroke-width="1" fill="none" fill-rule="evenodd" sketch:type="MSPage">
        <g id="Project" sketch:type="MSArtboardGroup" transform="translate(-151.000000, -1805.000000)" fill="#4AD9D9">
            <g id="Group-2-Copy" sketch:type="MSLayerGroup" transform="translate(151.000000, 1768.000000)">
                <g id="arrow-left--blue" transform="translate(12.000000, 49.000000) scale(-1, 1) translate(-12.000000, -49.000000) translate(0.000000, 37.000000)" sketch:type="MSShapeGroup">
                    <path d="M12,0 C5.373,0 0,5.37225 0,12 C0,18.62775 5.37225,24 12,24 C18.62775,24 24,18.62775 24,12 C24,5.37225 18.62775,0 12,0 L12,0 Z M12,22.524 C6.21,22.524 1.5,17.79 1.5,12 C1.5,6.21 6.21,1.5 12,1.5 C17.79,1.5 22.5,6.21 22.5,12 C22.5,17.79 17.79,22.524 12,22.524 L12,22.524 Z M12.47775,7.46775 C12.18525,7.76025 12.18525,8.23575 12.47775,8.52825 L15.1905,11.241 L6.7425,11.241 C6.32775,11.241 5.9925,11.577 5.9925,11.991 C5.9925,12.405 6.32775,12.741 6.7425,12.741 L15.23775,12.741 L12.47775,15.501 C12.18525,15.7935 12.18525,16.26825 12.47775,16.5615 C12.624,16.70775 12.816,16.78125 13.008,16.78125 C13.2,16.78125 13.392,16.70775 13.53825,16.5615 L17.9685,12.01425 L13.53825,7.467 C13.245,7.1745 12.771,7.1745 12.477,7.467 L12.47775,7.46775 Z" id="Shape"></path>
                </g>
            </g>
        </g>
    </g>
</svg>