<?xml version="1.0" encoding="UTF-8" standalone="no"?>
<svg width="116px" height="70px" viewBox="0 0 116 70" version="1.1" xmlns="http://www.w3.org/2000/svg" xmlns:xlink="http://www.w3.org/1999/xlink">
    <!-- Generator: Sketch 3.7.2 (28276) - http://www.bohemiancoding.com/sketch -->
    <title>icons-tools</title>
    <desc>Created with Sketch.</desc>
    <defs></defs>
    <g id="Page-1" stroke="none" stroke-width="1" fill="none" fill-rule="evenodd">
        <g id="icons-tools">
            <g id="speedometer" fill="#4AD9D9">
                <path d="M36.5194565,0.292574151 C16.4051087,0.292574151 0.0456521739,16.5519857 0.0456521739,36.5377487 C0.0456521739,49.093489 6.44380435,60.5787254 17.1583696,67.2557665 C18.2243478,67.9270995 19.6327174,67.6005051 20.3038043,66.5390733 C20.9748913,65.4776415 20.6507609,64.0782752 19.5825,63.4137463 C15.7226087,61.0073806 12.5178261,57.8820536 10.0640217,54.2804431 L12.4561957,52.908293 C13.5495652,52.2823204 13.923913,50.8965622 13.2916304,49.8101823 C12.6593478,48.7215342 11.2623913,48.3541155 10.173587,48.9800881 L7.77684783,50.3545063 C6.03521739,46.7733079 4.97380435,42.8564431 4.68847826,38.7717451 L7.22902174,38.7717451 C8.48902174,38.7717451 9.51163043,37.7556736 9.51163043,36.5037284 C9.51163043,35.2517832 8.49130435,34.2357117 7.22902174,34.2357117 L4.6998913,34.2357117 C5.00119565,30.0761691 6.11054348,26.1343562 7.87956522,22.571302 L10.173587,23.8867516 C10.5319565,24.0931412 10.9245652,24.1906659 11.3126087,24.1906659 C12.1023913,24.1906659 12.8670652,23.7846909 13.2916304,23.0566575 C13.923913,21.9702775 13.5472826,20.5845194 12.4561957,19.9585468 L10.185,18.6567052 C12.4744565,15.3385968 15.3825,12.4695557 18.7447826,10.2196831 L20.0298913,12.4309994 C20.4521739,13.1613008 21.2191304,13.5650077 22.008913,13.5650077 C22.3969565,13.5650077 22.7895652,13.467483 23.1479348,13.2610935 C24.2413043,12.6328529 24.6156522,11.2470947 23.9833696,10.1629827 L22.7028261,7.96073853 C26.2226087,6.27333413 30.0984783,5.22097439 34.1843478,4.92613222 L34.1843478,7.752081 C34.1843478,9.00629422 35.2046739,10.0200977 36.4669565,10.0200977 C37.7292391,10.0200977 38.7495652,9.00629422 38.7495652,7.752081 L38.7495652,4.91706015 C42.9290217,5.20509827 46.8916304,6.29147826 50.4753261,8.03104705 L49.2358696,10.1607147 C48.6058696,11.2470947 48.9779348,12.6328529 50.0713043,13.2588255 C50.4296739,13.465215 50.8222826,13.5627397 51.2103261,13.5627397 C52.0001087,13.5627397 52.7647826,13.1590328 53.1893478,12.4287314 L54.4219565,10.3058678 C57.7522826,12.5580083 60.6329348,15.4202454 62.9018478,18.7270137 L60.7653261,19.9540107 C59.6719565,20.5822513 59.2998913,21.9657415 59.9298913,23.0521215 C60.3544565,23.7824229 61.1191304,24.1861298 61.908913,24.1861298 C62.2969565,24.1861298 62.6895652,24.0886051 63.0479348,23.8822156 L65.1981522,22.6506825 C66.9511957,26.2137367 68.0468478,30.1510137 68.3413043,34.3037522 L65.835,34.3037522 C64.575,34.3037522 63.5523913,35.3198237 63.5523913,36.5717689 C63.5523913,37.8237141 64.575,38.8397856 65.835,38.8397856 L68.3413043,38.8397856 C68.051413,42.8700512 67.0151087,46.7370197 65.31,50.2728577 L63.0502174,48.9755521 C61.961413,48.3495795 60.5598913,48.7238023 59.9321739,49.8056462 C59.3021739,50.8920262 59.6742391,52.2777844 60.7676087,52.903757 L63.0342391,54.2033306 C60.5302174,57.9070018 57.225,61.1049053 53.235,63.5452912 C52.1598913,64.2030161 51.828913,65.6023824 52.488587,66.6660822 C52.92,67.3600953 53.6686957,67.7456581 54.4333696,67.7456581 C54.8396739,67.7456581 55.2551087,67.6367933 55.6271739,67.4099917 C66.5015217,60.7556307 72.9932609,49.2114258 72.9932609,36.5332126 C72.9932609,16.5497177 56.6292391,0.290306135 36.5171739,0.290306135 L36.5194565,0.292574151 Z M53.3628261,29.4660727 C54.453913,28.837832 54.8282609,27.4543419 54.1982609,26.3679619 C53.5682609,25.2815819 52.1713043,24.9118952 51.0802174,25.5378678 L38.681087,32.6503681 C38.0191304,32.2784133 37.2658696,32.0493437 36.4509783,32.0493437 C33.9355435,32.0493437 31.8971739,34.0746825 31.8971739,36.5717689 C31.8971739,39.0711233 33.9355435,41.0964622 36.4509783,41.0964622 C38.966413,41.0964622 41.0047826,39.0711233 41.0047826,36.5717689 L41.0047826,36.5581608 L53.3651087,29.4660727 L53.3628261,29.4660727 Z" id="Shape"></path>
            </g>
            <g id="wrench" transform="translate(52.753623, 6.086957)" fill="#FFB703">
                <path d="M61.8078859,13.2897995 C61.1456305,12.9852014 60.3595706,13.1011452 59.8073636,13.5885023 L49.9010444,22.4866998 L40.9576484,13.3114162 L49.8126126,3.08477755 C50.2940743,2.52864021 50.4119833,1.76223186 50.1113154,1.08818554 C49.8106475,0.414139217 49.1503572,0.00145779607 48.4212867,0.00145779607 L47.8887311,0.00145779607 C42.4157894,0.00145779607 32.9673501,0.471128556 28.750139,4.75122443 L27.8992292,5.59623877 C23.3990366,10.1868283 22.5992207,17.7172816 24.9711563,23.4417625 L2.29332961,46.5872947 C-0.764443203,49.6883008 -0.764443203,54.7131884 2.29332961,57.8141945 L5.06222543,60.6204282 C6.59111183,62.1689661 8.59556445,62.9452002 10.6000171,62.9452002 C12.6044697,62.9452002 14.6089223,62.1689661 16.1358435,60.6204282 L39.1477456,37.4238021 C41.3231663,38.6009267 44.3062634,39.367335 46.809864,39.367335 C50.8246647,39.367335 54.6311595,37.7480517 57.52779,34.8081879 L58.3669089,33.9572781 C62.9476727,29.3116644 62.8788925,19.3856937 62.898544,15.0171661 C62.9005091,14.2743395 62.4740716,13.6002932 61.8078859,13.2917647 L61.8078859,13.2897995 Z" id="Shape"></path>
            </g>
        </g>
    </g>
</svg>