<?xml version="1.0" encoding="UTF-8" standalone="no"?>
<svg width="111px" height="70px" viewBox="0 0 111 70" version="1.1" xmlns="http://www.w3.org/2000/svg" xmlns:xlink="http://www.w3.org/1999/xlink">
    <!-- Generator: Sketch 3.7.2 (28276) - http://www.bohemiancoding.com/sketch -->
    <title>icons-usercentred</title>
    <desc>Created with Sketch.</desc>
    <defs></defs>
    <g id="Page-1" stroke="none" stroke-width="1" fill="none" fill-rule="evenodd">
        <g id="icons-usercentred">
            <g id="emoticon-smile" transform="translate(52.500000, 6.176471)" fill="#4AD9D9">
                <path d="M43.9829044,34.1811029 C43.0677574,33.7721691 42.0084926,34.1847059 41.6049632,35.0926471 C41.5689338,35.1719118 37.8813235,43.2100735 28.6884191,43.3181618 C28.6325735,43.3181618 28.5749265,43.3199632 28.5190809,43.3199632 C19.8684191,43.3199632 16.1375735,35.4169118 15.9826471,35.0782353 C15.5701103,34.1775 14.5072426,33.7757721 13.6011029,34.1847059 C12.6949632,34.5936397 12.2932353,35.6601103 12.7021691,36.5680515 C12.893125,36.9931985 17.5084926,46.9229044 28.5136765,46.9229044 C28.5857353,46.9229044 28.6595956,46.9211029 28.7316544,46.9211029 C40.2088235,46.7859926 44.7106985,36.9751838 44.89625,36.5590441 C45.3051838,35.6493015 44.8944485,34.5846324 43.9865074,34.1811029 L43.9829044,34.1811029 Z M28.8235294,0 C12.9039338,0 0,12.9039338 0,28.8235294 C0,44.743125 12.9039338,57.6470588 28.8235294,57.6470588 C44.743125,57.6470588 57.6470588,44.743125 57.6470588,28.8235294 C57.6470588,12.9039338 44.743125,0 28.8235294,0 Z M19.7891544,27.0130515 C21.774375,27.0130515 23.3830882,25.4043382 23.3830882,23.4191176 C23.3830882,21.4338971 21.774375,19.8251838 19.7891544,19.8251838 C17.8039338,19.8251838 16.1952206,21.4338971 16.1952206,23.4191176 C16.1952206,25.4043382 17.8039338,27.0130515 19.7891544,27.0130515 L19.7891544,27.0130515 Z M37.8038603,27.0130515 C39.7890809,27.0130515 41.3977941,25.4043382 41.3977941,23.4191176 C41.3977941,21.4338971 39.7890809,19.8251838 37.8038603,19.8251838 C35.8186397,19.8251838 34.2099265,21.4338971 34.2099265,23.4191176 C34.2099265,25.4043382 35.8168382,27.0130515 37.8038603,27.0130515 L37.8038603,27.0130515 Z" id="Shape"></path>
            </g>
            <g id="directions" fill="#FFB703">
                <path d="M69.4058478,12.7952249 L62.6131834,5.21124567 C62.2011765,4.74474048 61.6060554,4.47878893 60.9825952,4.47878893 L37.1232526,4.47878893 L37.1232526,2.16370242 C37.1232526,1.0366782 36.1466436,0.118927336 34.9433218,0.118927336 C33.74,0.118927336 32.763391,1.03449827 32.763391,2.16370242 L32.763391,4.47878893 L15.3370242,4.47878893 C14.1315225,4.47878893 13.1570934,5.45539792 13.1570934,6.65871972 L13.1570934,21.8942561 C13.1570934,23.0997578 14.1315225,24.0741869 15.3370242,24.0741869 L32.763391,24.0741869 L32.763391,28.4405882 L9.01740484,28.4405882 C8.39394464,28.4405882 7.80100346,28.7065398 7.38681661,29.173045 L0.59633218,36.8921799 C-0.136124567,37.7183737 -0.136124567,38.9609343 0.59633218,39.787128 L7.38681661,47.4365052 C7.80318339,47.9030104 8.39394464,48.1013841 9.01740484,48.1013841 L32.763391,48.1013841 L32.763391,67.8362976 C32.763391,68.9633218 33.74,69.8810727 34.9433218,69.8810727 C36.1466436,69.8810727 37.1232526,68.9655017 37.1232526,67.8362976 L37.1232526,48.1013841 L54.5953979,48.1013841 C55.7987197,48.1013841 56.7753287,47.1247751 56.7753287,45.9214533 L56.7753287,30.620519 C56.7753287,29.4150173 55.7987197,28.4405882 54.5953979,28.4405882 L37.1254325,28.4405882 L37.1254325,24.0741869 L60.9847751,24.0741869 C61.6082353,24.0741869 62.2011765,23.8082353 62.6153633,23.3417301 L69.4080277,15.690173 C70.1383045,14.8661592 70.1383045,13.6214187 69.4080277,12.7974048 L69.4058478,12.7952249 Z" id="Shape"></path>
            </g>
        </g>
    </g>
</svg>