<?xml version="1.0" encoding="UTF-8" standalone="no"?>
<svg width="130px" height="70px" viewBox="0 0 130 70" version="1.1" xmlns="http://www.w3.org/2000/svg" xmlns:xlink="http://www.w3.org/1999/xlink">
    <!-- Generator: Sketch 3.7.2 (28276) - http://www.bohemiancoding.com/sketch -->
    <title>icons-cms</title>
    <desc>Created with Sketch.</desc>
    <defs></defs>
    <g id="Page-1" stroke="none" stroke-width="1" fill="none" fill-rule="evenodd">
        <g id="icons-cms">
            <g id="screen-desktop" fill="#FFB703">
                <path d="M79.6875,0.1403125 L5.3125,0.1403125 C2.39328125,0.1403125 0,2.5309375 0,5.4528125 L0,50.625 C0,53.5442187 2.390625,55.9375 5.3125,55.9375 L39.84375,55.9375 L39.84375,63.9221875 L26.5625,63.9221875 C25.09625,63.9221875 23.90625,65.1121875 23.90625,66.5784375 C23.90625,68.0446875 25.09625,69.2346875 26.5625,69.2346875 L58.4375,69.2346875 C59.90375,69.2346875 61.09375,68.0446875 61.09375,66.5784375 C61.09375,65.1121875 59.90375,63.9221875 58.4375,63.9221875 L45.15625,63.9221875 L45.15625,55.9375 L79.6875,55.9375 C82.6067187,55.9375 85,53.546875 85,50.625 L85,5.4528125 C85,2.5309375 82.6067187,0.1403125 79.6875,0.1403125 L79.6875,0.1403125 Z M79.6875,50.625 L5.3125,50.625 L5.3125,5.4528125 L79.6875,5.4528125 L79.6875,50.625 L79.6875,50.625 Z" id="Shape"></path>
            </g>
            <g id="settings" transform="translate(61.250000, 0.000000)" fill="#4AD9D9">
                <path d="M64.2456913,27.3892992 L58.8248485,26.1877178 C58.4025,24.8362027 57.8492235,23.5438163 57.2157008,22.3 L60.148911,17.4155398 C61.2427936,15.6649053 61.7960701,13.092803 60.148911,11.4414205 L57.1607955,8.45541667 C55.5136364,6.80614583 52.7282481,7.10390152 51.0473011,8.26958333 L46.2937689,11.297822 C45.0605114,10.657964 43.7702367,10.108911 42.431392,9.67600379 L41.2150284,4.18969697 C40.8518087,2.17720644 39.0927273,0 36.7592519,0 L32.535767,0 C30.2044034,0 28.7747538,2.21099432 28.3122822,4.22348485 L26.9565436,9.64432765 C25.5247822,10.100464 24.1521496,10.6833049 22.8428693,11.3738447 L17.9689678,8.26958333 C16.2901326,7.10390152 13.5047443,6.80825758 11.8575852,8.45541667 L8.8694697,11.4414205 C7.22019886,13.092803 7.77347538,15.6649053 8.8694697,17.413428 L11.9547254,22.5555208 C11.376108,23.7212027 10.8629545,24.9270076 10.465947,26.1877178 L5.04721591,27.3892992 C3.03472538,27.7504072 0.857518939,29.5116004 0.857518939,31.842964 L0.857518939,36.0664489 C0.857518939,38.3999242 3.06851326,39.8295739 5.08100379,40.2899337 L10.5673106,41.6604545 C10.9453125,42.8240246 11.4204545,43.9411364 11.9568371,45.0244602 L8.8694697,50.1728883 C7.77558712,51.921411 7.22231061,54.495625 8.8694697,56.1448958 L11.8575852,59.1308996 C13.5047443,60.7822822 16.2880208,60.4824148 17.9689678,59.3188447 L22.853428,56.2061364 C24.1690436,56.9008996 25.5501231,57.4900758 26.9924432,57.9441004 L28.3439583,63.3480492 C28.8064299,65.3605398 30.2360795,67.5715341 32.5674432,67.5715341 L36.790928,67.5715341 C39.1244034,67.5715341 40.8834848,65.3922159 41.2467045,63.3797254 L42.4651799,57.8786364 C43.7913542,57.4499527 45.0626231,56.9093466 46.2832102,56.2779356 L51.0473011,59.3146212 C52.7282481,60.480303 55.5115246,60.775947 57.1607955,59.1266761 L60.148911,56.1406723 C61.7960701,54.4892898 61.2427936,51.9171875 60.148911,50.1686648 L57.213589,45.2757576 C57.8027652,44.116411 58.3138068,42.9106061 58.7255966,41.6562311 L64.2140152,40.2857102 C66.2265057,39.8232386 68.4375,38.3957008 68.4375,36.0622254 L68.4375,31.8387405 C68.4375,29.5073769 66.2602936,27.7461837 64.2456913,27.382964 L64.2456913,27.3892992 Z M34.6791856,21.0963068 C27.666089,21.0963068 21.960161,26.7916761 21.960161,33.7878788 C21.960161,40.7840814 27.666089,46.477339 34.6791856,46.477339 C41.6922822,46.477339 47.3982102,40.7819697 47.3982102,33.7878788 C47.3982102,26.7916761 41.6922822,21.0963068 34.6791856,21.0963068 L34.6791856,21.0963068 Z M34.6496212,42.2348485 C29.9911174,42.2348485 26.2026515,38.4463826 26.2026515,33.7878788 C26.2026515,29.129375 29.9911174,25.3409091 34.6496212,25.3409091 C39.308125,25.3409091 43.0965909,29.129375 43.0965909,33.7878788 C43.0965909,38.4463826 39.308125,42.2348485 34.6496212,42.2348485 L34.6496212,42.2348485 Z" id="Shape"></path>
            </g>
        </g>
    </g>
</svg>