<?xml version="1.0" encoding="UTF-8" standalone="no"?>
<svg width="125px" height="70px" viewBox="0 0 125 70" version="1.1" xmlns="http://www.w3.org/2000/svg" xmlns:xlink="http://www.w3.org/1999/xlink">
    <!-- Generator: Sketch 3.7.2 (28276) - http://www.bohemiancoding.com/sketch -->
    <title>icons-semantic</title>
    <desc>Created with Sketch.</desc>
    <defs></defs>
    <g id="Page-1" stroke="none" stroke-width="1" fill="none" fill-rule="evenodd">
        <g id="icons-semantic">
            <g id="book-open" fill="#FFB703">
                <path d="M64.9805882,0.227923875 L36.1619031,8.03425606 C35.4294464,8.23044983 33.8380969,8.2282699 33.1078201,8.0233564 L5.03031142,0.243183391 C2.52557093,-0.447854671 0.0971280277,1.35930796 0.0971280277,3.94034602 L0.0971280277,56.9475433 C0.0971280277,59.1340138 1.75387543,61.2245675 3.86404844,61.8131488 L31.9415571,69.5955017 C32.6936332,69.8047751 33.6593426,69.9203114 34.6621107,69.9203114 C35.3487889,69.9203114 36.3646367,69.8679931 37.299827,69.6107612 L66.1185121,61.8044291 C68.2352249,61.2332872 69.900692,59.1449135 69.900692,56.9497232 L69.900692,3.94034602 C69.902872,1.36148789 67.4744291,-0.450034602 64.9784083,0.227923875 L64.9805882,0.227923875 Z M32.8200692,65.3097578 L4.96273356,57.6080623 C4.75346021,57.5513841 4.45698962,57.1655363 4.45698962,56.9475433 L4.45698962,4.62702422 L31.9415571,12.226263 C32.2075087,12.3003806 32.5061592,12.3592388 32.8178893,12.4071972 L32.8178893,65.3119377 L32.8200692,65.3097578 Z M65.5430104,56.9475433 C65.5430104,57.1633564 65.1898616,57.5361246 64.9805882,57.5949827 L37.1799308,65.1244637 L37.1799308,12.2676817 C37.2191696,12.256782 37.2627682,12.2524221 37.3020069,12.2415225 L65.5408304,4.60304498 L65.5408304,56.9475433 L65.5430104,56.9475433 Z M43.8570588,25.0747751 C44.0532526,25.0747751 44.2516263,25.0507958 44.4478201,24.9941176 L59.7029758,20.699654 C60.862699,20.3726644 61.5384775,19.1693426 61.2114879,18.0117993 C60.8844983,16.8542561 59.6746367,16.1806574 58.5236332,16.5032872 L43.2684775,20.7955709 C42.1087543,21.1225606 41.4329758,22.3258824 41.7599654,23.4834256 C42.0302768,24.4447751 42.906609,25.0725952 43.8570588,25.0725952 L43.8570588,25.0747751 Z M43.8570588,38.1543599 C44.0532526,38.1543599 44.2516263,38.1282007 44.4478201,38.0737024 L59.7029758,33.7792388 C60.862699,33.4522491 61.5384775,32.2489273 61.2114879,31.0913841 C60.8844983,29.9338408 59.6746367,29.2602422 58.5236332,29.580692 L43.2684775,33.8751557 C42.1087543,34.2021453 41.4329758,35.4054671 41.7599654,36.5630104 C42.0302768,37.5265398 42.906609,38.1543599 43.8570588,38.1543599 L43.8570588,38.1543599 Z M43.8570588,51.2339446 C44.0532526,51.2339446 44.2516263,51.2077855 44.4478201,51.1532872 L59.7029758,46.8588235 C60.862699,46.529654 61.5384775,45.3285121 61.2114879,44.1709689 C60.8844983,43.0134256 59.6746367,42.339827 58.5236332,42.6624567 L43.2684775,46.9569204 C42.1087543,47.28609 41.4329758,48.4872318 41.7599654,49.6447751 C42.0302768,50.6061246 42.906609,51.2361246 43.8570588,51.2361246 L43.8570588,51.2339446 Z M27.0040138,20.7955709 L11.7488581,16.5011073 C10.5956747,16.1806574 9.38581315,16.8520761 9.05882353,18.0117993 C8.73183391,19.1715225 9.40761246,20.3726644 10.5673356,20.699654 L25.8224913,24.9941176 C26.0186851,25.0486159 26.2170588,25.0747751 26.4132526,25.0747751 C27.3658824,25.0747751 28.2400346,24.446955 28.510346,23.4856055 C28.8351557,22.3280623 28.1615571,21.1247405 26.999654,20.7977509 L27.0040138,20.7955709 Z M27.0040138,33.8751557 L11.7488581,29.580692 C10.5956747,29.2580623 9.38581315,29.9316609 9.05882353,31.0913841 C8.73183391,32.2511073 9.40761246,33.4522491 10.5673356,33.7792388 L25.8224913,38.0737024 C26.0186851,38.1303806 26.2170588,38.1543599 26.4132526,38.1543599 C27.3658824,38.1543599 28.2400346,37.5265398 28.510346,36.5630104 C28.8351557,35.4054671 28.1615571,34.2021453 26.999654,33.8751557 L27.0040138,33.8751557 Z M27.0040138,46.9547405 L11.7488581,42.6602768 C10.5956747,42.3376471 9.38581315,43.0112457 9.05882353,44.1687889 C8.73183391,45.3263322 9.40761246,46.529654 10.5673356,46.8566436 L25.8224913,51.1511073 C26.0186851,51.2077855 26.2170588,51.2317647 26.4132526,51.2317647 C27.3658824,51.2317647 28.2400346,50.6039446 28.510346,49.6404152 C28.8351557,48.480692 28.1615571,47.2795502 26.999654,46.9525606 L27.0040138,46.9547405 Z" id="Shape"></path>
            </g>
            <g id="eyeglasses" transform="translate(53.529412, 7.205882)" fill="#4AD9D9">
                <path d="M71.0931161,36.4671631 C71.0253622,35.5025176 67.4715641,14.235761 66.9164198,10.8316542 C66.8639652,10.5063926 66.820253,10.1566251 66.7721697,9.79126287 C66.3416049,6.36933346 65.5394869,0.00222781863 55.4703922,0.00222781863 C54.2639368,0.00222781863 53.2847845,0.998062745 53.2847845,2.23004645 C53.2847845,3.46203015 54.2639368,4.45786507 55.4703922,4.45786507 C61.695003,4.45786507 62.0228441,7.06218505 62.4381096,10.3615844 C62.4905642,10.78487 62.5430188,11.1881051 62.6042158,11.5646065 C62.8599319,13.1329908 64.018304,19.3731108 65.0193123,25.5597631 C62.4534088,23.5658654 59.2624216,22.3717547 55.789491,22.3717547 C50.2118201,22.3717547 45.248305,25.4305496 42.5206666,29.9864387 C41.2071164,29.4807239 38.9821678,28.8480234 36.0053701,28.8480234 C33.0722845,28.8480234 30.9150897,29.4829517 29.5840547,30.0376786 C26.9307269,25.4550556 22.0502649,22.3717547 16.4529236,22.3717547 C12.8138868,22.3717547 9.43493728,23.6750286 6.76412468,25.8404683 C7.77606104,19.5758423 8.97814527,13.1664081 9.23604698,11.5668343 C9.29942961,11.190333 9.34969858,10.78487 9.40215317,10.3638123 C9.81741863,7.06441287 10.1452598,4.46232071 16.3698705,4.46232071 C17.5785116,4.46232071 18.5554782,3.46648578 18.5554782,2.23450208 C18.5554782,1.00251838 17.5785116,0.00668345588 16.3698705,0.00668345588 C6.30077584,0.00668345588 5.49865782,6.37378909 5.0680931,9.79794632 C5.02000973,10.1633086 4.97848319,10.5108483 4.92384299,10.8383376 C4.36651303,14.2424445 1.02909007,35.3688485 0.963521843,36.333494 C0.948222589,36.5473646 0.972264273,36.7545517 1.01597643,36.9550554 C0.99412035,37.2780891 0.967893058,37.5966672 0.967893058,37.9219287 C0.967893058,46.5079417 8.02522032,53.4698749 16.450738,53.4698749 C24.8762557,53.4698749 31.7040941,46.5079417 31.7040941,37.9197009 C31.7040941,36.6208826 31.5314311,35.3666207 31.2363741,34.1613708 C32.1324732,33.7937808 33.7520085,33.3014328 36.0031845,33.3014328 C38.2019058,33.3014328 39.8607821,33.7492244 40.8049646,34.0900806 C40.4902371,35.3176087 40.3044604,36.5941488 40.3044604,37.917473 C40.3044604,46.503486 47.3639733,53.4654192 55.7873054,53.4654192 C64.2106374,53.4654192 71.0406615,46.503486 71.0406615,37.9152452 C71.0406615,37.6813243 71.0166198,37.4563146 71.0056918,37.2246214 C71.0734456,36.9817892 71.1084153,36.7278179 71.0887449,36.4627075 L71.0931161,36.4671631 Z M16.450738,49.0120098 C10.4272032,49.0120098 5.33910846,43.9325833 5.33910846,37.9197009 C5.33910846,31.9068184 10.4272032,26.8251641 16.450738,26.8251641 C22.4524167,26.8251641 27.3328787,31.7998831 27.3328787,37.9197009 C27.3328787,44.0395186 22.4524167,49.0142376 16.450738,49.0142376 L16.450738,49.0120098 Z M55.789491,49.0120098 C49.7659562,49.0120098 44.6778614,43.9325833 44.6778614,37.9197009 C44.6778614,31.9068184 49.7659562,26.8251641 55.789491,26.8251641 C60.9803093,26.8251641 65.3252974,30.5500768 66.4071732,35.5114289 C66.4508853,35.9659039 66.4902263,36.3936451 66.5164536,36.7857412 C66.5295672,36.9728779 66.5798362,37.1488756 66.6432188,37.3181898 C66.6541468,37.5186935 66.6738173,37.7147415 66.6738173,37.9197009 C66.6738173,44.035063 61.7933553,49.0120098 55.7916766,49.0120098 L55.789491,49.0120098 Z" id="Shape"></path>
            </g>
        </g>
    </g>
</svg>