<?xml version="1.0" encoding="UTF-8" standalone="no"?>
<svg width="30px" height="370px" viewBox="0 0 30 370" version="1.1" xmlns="http://www.w3.org/2000/svg" xmlns:xlink="http://www.w3.org/1999/xlink" xmlns:sketch="http://www.bohemiancoding.com/sketch/ns">
    <!-- Generator: Sketch 3.0.4 (8053) - http://www.bohemiancoding.com/sketch -->
    <title>icons</title>
    <desc>Created with Sketch.</desc>
    <defs></defs>
    <g id="aseets" stroke="none" stroke-width="1" fill="none" fill-rule="evenodd" sketch:type="MSPage">
        <g id="icons" sketch:type="MSArtboardGroup">
            <path d="M8.42048219,0.00990133287 C6.18231863,0.00990133287 4.20989021,0.654388091 2.56775934,2.2323005 C-0.85591978,5.51684265 -0.85591978,10.8428596 2.56775934,14.129202 C3.54555237,15.0698286 13.0315483,25.2213952 13.0315483,25.2213952 C13.5723754,25.7416652 14.2816262,26 14.9899414,26 C15.6982565,26 16.4047003,25.7416652 16.9464631,25.2213952 C16.9464631,25.2213952 27.3232331,14.4469448 27.4336442,14.3398304 C30.8554519,11.0525878 30.8554519,5.72567076 27.4336442,2.44112861 C25.7344364,0.809208932 23.8359273,0 21.5210374,0 C19.309073,0 16.8426018,1.69672841 15.0002339,3.49697075 C13.0998534,1.69672841 10.7101085,0.00990133287 8.42141788,0.00990133287 L8.42048219,0.00990133287 Z" id="Shape-2" fill="#F6CB51" sketch:type="MSShapeGroup"></path>
            <path d="M8.42048219,38.0099013 C6.18231863,38.0099013 4.20989021,38.6543881 2.56775934,40.2323005 C-0.85591978,43.5168427 -0.85591978,48.8428596 2.56775934,52.129202 C3.54555237,53.0698286 13.0315483,63.2213952 13.0315483,63.2213952 C13.5723754,63.7416652 14.2816262,64 14.9899414,64 C15.6982565,64 16.4047003,63.7416652 16.9464631,63.2213952 C16.9464631,63.2213952 27.3232331,52.4469448 27.4336442,52.3398304 C30.8554519,49.0525878 30.8554519,43.7256708 27.4336442,40.4411286 C25.7344364,38.8092089 23.8359273,38 21.5210374,38 C19.309073,38 16.8426018,39.6967284 15.0002339,41.4969707 C13.0998534,39.6967284 10.7101085,38.0099013 8.42141788,38.0099013 L8.42048219,38.0099013 Z" id="Shape-3" fill="#E27A3F" sketch:type="MSShapeGroup"></path>
            <path d="M8.42048219,76.0099013 C6.18231863,76.0099013 4.20989021,76.6543881 2.56775934,78.2323005 C-0.85591978,81.5168427 -0.85591978,86.8428596 2.56775934,90.129202 C3.54555237,91.0698286 13.0315483,101.221395 13.0315483,101.221395 C13.5723754,101.741665 14.2816262,102 14.9899414,102 C15.6982565,102 16.4047003,101.741665 16.9464631,101.221395 C16.9464631,101.221395 27.3232331,90.4469448 27.4336442,90.3398304 C30.8554519,87.0525878 30.8554519,81.7256708 27.4336442,78.4411286 C25.7344364,76.8092089 23.8359273,76 21.5210374,76 C19.309073,76 16.8426018,77.6967284 15.0002339,79.4969707 C13.0998534,77.6967284 10.7101085,76.0099013 8.42141788,76.0099013 L8.42048219,76.0099013 Z" id="Shape-4" fill="#B7C11E" sketch:type="MSShapeGroup"></path>
            <path d="M8.42048219,114.009901 C6.18231863,114.009901 4.20989021,114.654388 2.56775934,116.232301 C-0.85591978,119.516843 -0.85591978,124.84286 2.56775934,128.129202 C3.54555237,129.069829 13.0315483,139.221395 13.0315483,139.221395 C13.5723754,139.741665 14.2816262,140 14.9899414,140 C15.6982565,140 16.4047003,139.741665 16.9464631,139.221395 C16.9464631,139.221395 27.3232331,128.446945 27.4336442,128.33983 C30.8554519,125.052588 30.8554519,119.725671 27.4336442,116.441129 C25.7344364,114.809209 23.8359273,114 21.5210374,114 C19.309073,114 16.8426018,115.696728 15.0002339,117.496971 C13.0998534,115.696728 10.7101085,114.009901 8.42141788,114.009901 L8.42048219,114.009901 Z" id="Shape-5" fill="#23A38F" sketch:type="MSShapeGroup"></path>
            <path d="M8.42048219,152.009901 C6.18231863,152.009901 4.20989021,152.654388 2.56775934,154.232301 C-0.85591978,157.516843 -0.85591978,162.84286 2.56775934,166.129202 C3.54555237,167.069829 13.0315483,177.221395 13.0315483,177.221395 C13.5723754,177.741665 14.2816262,178 14.9899414,178 C15.6982565,178 16.4047003,177.741665 16.9464631,177.221395 C16.9464631,177.221395 27.3232331,166.446945 27.4336442,166.33983 C30.8554519,163.052588 30.8554519,157.725671 27.4336442,154.441129 C25.7344364,152.809209 23.8359273,152 21.5210374,152 C19.309073,152 16.8426018,153.696728 15.0002339,155.496971 C13.0998534,153.696728 10.7101085,152.009901 8.42141788,152.009901 L8.42048219,152.009901 Z" id="Shape-6" fill="#334D5C" sketch:type="MSShapeGroup"></path>
            <g id="directions" sketch:type="MSLayerGroup" transform="translate(0.000000, 190.000000)" fill="#D4DA74">
                <path d="M29.7965625,5.450625 L26.8753125,2.1890625 C26.698125,1.9884375 26.4421875,1.8740625 26.1740625,1.8740625 L15.913125,1.8740625 L15.913125,0.8784375 C15.913125,0.39375 15.493125,-0.0009375 14.975625,-0.0009375 C14.458125,-0.0009375 14.038125,0.3928125 14.038125,0.8784375 L14.038125,1.8740625 L6.54375,1.8740625 C6.0253125,1.8740625 5.60625,2.2940625 5.60625,2.8115625 L5.60625,9.36375 C5.60625,9.8821875 6.0253125,10.30125 6.54375,10.30125 L14.038125,10.30125 L14.038125,12.1790625 L3.8259375,12.1790625 C3.5578125,12.1790625 3.3028125,12.2934375 3.1246875,12.4940625 L0.204375,15.81375 C-0.110625,16.1690625 -0.110625,16.7034375 0.204375,17.05875 L3.1246875,20.3484375 C3.30375,20.5490625 3.5578125,20.634375 3.8259375,20.634375 L14.038125,20.634375 L14.038125,29.1215625 C14.038125,29.60625 14.458125,30.0009375 14.975625,30.0009375 C15.493125,30.0009375 15.913125,29.6071875 15.913125,29.1215625 L15.913125,20.634375 L23.4271875,20.634375 C23.9446875,20.634375 24.3646875,20.214375 24.3646875,19.696875 L24.3646875,13.1165625 C24.3646875,12.598125 23.9446875,12.1790625 23.4271875,12.1790625 L15.9140625,12.1790625 L15.9140625,10.30125 L26.175,10.30125 C26.443125,10.30125 26.698125,10.186875 26.87625,9.98625 L29.7975,6.695625 C30.1115625,6.34125 30.1115625,5.8059375 29.7975,5.4515625 L29.7965625,5.450625 Z M22.4896875,18.759375 L4.246875,18.759375 L2.158125,16.4371875 L4.246875,14.055 L22.4896875,14.055 L22.4896875,18.759375 L22.4896875,18.759375 Z M25.753125,8.4271875 L7.48125,8.4271875 L7.48125,3.75 L25.753125,3.75 L27.8409375,6.0740625 L25.753125,8.4271875 L25.753125,8.4271875 Z" id="Shape" sketch:type="MSShapeGroup"></path>
            </g>
            <g id="speedometer" sketch:type="MSLayerGroup" transform="translate(0.000000, 232.000000)" fill="#D4DA74">
                <path d="M14.9990625,0.1247 C6.7378125,0.1247 0.01875,7.05473333 0.01875,15.573 C0.01875,20.9244667 2.6465625,25.8196667 7.0471875,28.6655333 C7.485,28.9516667 8.0634375,28.8124667 8.3390625,28.3600667 C8.6146875,27.9076667 8.4815625,27.3112333 8.0428125,27.028 C6.4575,26.0023667 5.14125,24.6703 4.1334375,23.1352333 L5.1159375,22.5504 C5.565,22.2836 5.71875,21.6929667 5.4590625,21.2299333 C5.199375,20.7659333 4.625625,20.6093333 4.1784375,20.8761333 L3.1940625,21.4619333 C2.47875,19.9355667 2.0428125,18.2661333 1.925625,16.5251667 L2.9690625,16.5251667 C3.4865625,16.5251667 3.9065625,16.0921 3.9065625,15.5585 C3.9065625,15.0249 3.4875,14.5918333 2.9690625,14.5918333 L1.9303125,14.5918333 C2.0540625,12.8189667 2.5096875,11.1389 3.23625,9.62026667 L4.1784375,10.1809333 C4.325625,10.2689 4.486875,10.3104667 4.64625,10.3104667 C4.970625,10.3104667 5.2846875,10.1374333 5.4590625,9.82713333 C5.71875,9.3641 5.5640625,8.77346667 5.1159375,8.50666667 L4.183125,7.9518 C5.1234375,6.53756667 6.3178125,5.31473333 7.69875,4.3558 L8.2265625,5.2983 C8.4,5.60956667 8.715,5.78163333 9.039375,5.78163333 C9.19875,5.78163333 9.36,5.74006667 9.5071875,5.6521 C9.95625,5.38433333 10.11,4.7937 9.8503125,4.33163333 L9.324375,3.393 C10.77,2.6738 12.361875,2.22526667 14.04,2.0996 L14.04,3.30406667 C14.04,3.83863333 14.4590625,4.27073333 14.9775,4.27073333 C15.4959375,4.27073333 15.915,3.83863333 15.915,3.30406667 L15.915,2.09573333 C17.6315625,2.2185 19.2590625,2.68153333 20.7309375,3.42296667 L20.221875,4.33066667 C19.963125,4.7937 20.1159375,5.38433333 20.565,5.65113333 C20.7121875,5.7391 20.8734375,5.78066667 21.0328125,5.78066667 C21.3571875,5.78066667 21.67125,5.6086 21.845625,5.29733333 L22.351875,4.39253333 C23.7196875,5.35243333 24.9028125,6.57236667 25.8346875,7.98176667 L24.9571875,8.50473333 C24.508125,8.7725 24.3553125,9.36216667 24.6140625,9.8252 C24.7884375,10.1364667 25.1025,10.3085333 25.426875,10.3085333 C25.58625,10.3085333 25.7475,10.2669667 25.8946875,10.179 L26.7778125,9.6541 C27.4978125,11.1727333 27.9478125,12.8508667 28.06875,14.6208333 L27.039375,14.6208333 C26.521875,14.6208333 26.101875,15.0539 26.101875,15.5875 C26.101875,16.1211 26.521875,16.5541667 27.039375,16.5541667 L28.06875,16.5541667 C27.9496875,18.2719333 27.5240625,19.9201 26.82375,21.4271333 L25.895625,20.8742 C25.4484375,20.6074 24.8728125,20.7669 24.615,21.228 C24.35625,21.6910333 24.5090625,22.2816667 24.958125,22.5484667 L25.8890625,23.1023667 C24.860625,24.6809333 23.503125,26.0439333 21.864375,27.0840667 C21.4228125,27.3644 21.286875,27.9608333 21.5578125,28.4142 C21.735,28.71 22.0425,28.8743333 22.3565625,28.8743333 C22.5234375,28.8743333 22.6940625,28.8279333 22.846875,28.7312667 C27.313125,25.8950667 29.979375,20.9747333 29.979375,15.5710667 C29.979375,7.05376667 23.2584375,0.123733333 14.998125,0.123733333 L14.9990625,0.1247 Z M21.916875,12.5589333 C22.365,12.2911667 22.51875,11.7015 22.26,11.2384667 C22.00125,10.7764 21.4275,10.6178667 20.979375,10.8846667 L15.886875,13.9161333 C15.615,13.7576 15.305625,13.6599667 14.9709375,13.6599667 C13.9378125,13.6599667 13.100625,14.5232 13.100625,15.5875 C13.100625,16.6527667 13.9378125,17.516 14.9709375,17.516 C16.0040625,17.516 16.84125,16.6527667 16.84125,15.5875 L16.84125,15.5817 L21.9178125,12.5589333 L21.916875,12.5589333 Z" id="Shape" sketch:type="MSShapeGroup"></path>
            </g>
            <g id="emoticon-smile" sketch:type="MSLayerGroup" transform="translate(0.000000, 273.000000)" fill="#D4DA74">
                <path d="M22.8890625,17.788125 C22.4128125,17.5753125 21.8615625,17.79 21.6515625,18.2625 C21.6328125,18.30375 19.71375,22.486875 14.9296875,22.543125 C14.900625,22.543125 14.870625,22.5440625 14.8415625,22.5440625 C10.3396875,22.5440625 8.398125,18.43125 8.3175,18.255 C8.1028125,17.78625 7.5496875,17.5771875 7.078125,17.79 C6.6065625,18.0028125 6.3975,18.5578125 6.6103125,19.0303125 C6.7096875,19.2515625 9.1115625,24.4190625 14.83875,24.4190625 C14.87625,24.4190625 14.9146875,24.418125 14.9521875,24.418125 C20.925,24.3478125 23.2678125,19.2421875 23.364375,19.025625 C23.5771875,18.5521875 23.3634375,17.998125 22.8909375,17.788125 L22.8890625,17.788125 Z M15,0 C6.7153125,0 0,6.7153125 0,15 C0,23.2846875 6.7153125,30 15,30 C23.2846875,30 30,23.2846875 30,15 C30,6.7153125 23.2846875,0 15,0 L15,0 Z M15,28.125 C7.7625,28.125 1.875,22.2375 1.875,15 C1.875,7.7625 7.7625,1.875 15,1.875 C22.2375,1.875 28.125,7.7625 28.125,15 C28.125,22.2375 22.2375,28.125 15,28.125 L15,28.125 Z M10.2984375,14.0578125 C11.3315625,14.0578125 12.16875,13.220625 12.16875,12.1875 C12.16875,11.154375 11.3315625,10.3171875 10.2984375,10.3171875 C9.2653125,10.3171875 8.428125,11.154375 8.428125,12.1875 C8.428125,13.220625 9.2653125,14.0578125 10.2984375,14.0578125 L10.2984375,14.0578125 Z M19.6734375,14.0578125 C20.7065625,14.0578125 21.54375,13.220625 21.54375,12.1875 C21.54375,11.154375 20.7065625,10.3171875 19.6734375,10.3171875 C18.6403125,10.3171875 17.803125,11.154375 17.803125,12.1875 C17.803125,13.220625 18.639375,14.0578125 19.6734375,14.0578125 L19.6734375,14.0578125 Z" id="Shape" sketch:type="MSShapeGroup"></path>
            </g>
            <g id="screen-smartphone" sketch:type="MSLayerGroup" transform="translate(6.000000, 315.000000)" fill="#D4DA74">
                <path d="M15.005,0 L2.996,0 C1.339,0 -0.004,1.343 -0.004,3 L-0.004,29 C-0.004,30.657 1.339,32 2.996,32 L15.005,32 C16.662,32 18.005,30.657 18.005,29 L18.005,3 C18.005,1.343 16.662,0 15.005,0 L15.005,0 Z M16.005,29 C16.005,29.552 15.557,30 15.005,30 L2.996,30 C2.444,30 1.996,29.552 1.996,29 L1.996,3 C1.996,2.448 2.444,2 2.996,2 L15.005,2 C15.557,2 16.005,2.448 16.005,3 L16.005,29 L16.005,29 Z M9.002,25.006 C7.9,25.006 7.007,25.899 7.007,27 C7.007,28.101 7.9,28.995 9.002,28.995 C10.104,28.995 10.997,28.101 10.997,27 C10.997,25.899 10.105,25.006 9.002,25.006 L9.002,25.006 Z M11.002,3 L7.002,3 C6.45,3 6.002,3.448 6.002,4 C6.002,4.552 6.45,5 7.002,5 L11.002,5 C11.554,5 12.002,4.552 12.002,4 C12.002,3.448 11.554,3 11.002,3 L11.002,3 Z" id="Shape" sketch:type="MSShapeGroup"></path>
            </g>
            <path d="M7.00840023,362.998875 C6.77693356,363.213375 6.40413356,363.213375 6.17320023,362.998875 C5.94280023,362.784375 5.94173356,362.437875 6.17320023,362.222875 L9.50760023,359.160875 C9.7390669,358.946375 10.1124002,358.946375 10.3428002,359.160875 L13.6777336,362.223875 C13.9092002,362.438875 13.9092002,362.785375 13.6777336,362.999875 C13.4462669,363.214375 13.0734669,363.214375 12.8425336,362.999875 L9.9246669,360.486875 L7.00840023,362.998875 L7.00840023,362.998875 Z" id="Shape" fill="#334D5C" sketch:type="MSShapeGroup"></path>
        </g>
    </g>
</svg>